HIERARCHY
ROOT Hips
{
	OFFSET -0.001795 -0.223333 0.028219
	CHANNELS 6 Xposition Yposition Zposition Zrotation Yrotation Xrotation 
	JOINT LeftUpLeg
	{
		OFFSET 0.069520 -0.091406 -0.006815
		CHANNELS 3 Zrotation Yrotation Xrotation
		JOINT LeftLeg
		{
			OFFSET 0.034277 -0.375199 -0.004496
			CHANNELS 3 Zrotation Yrotation Xrotation
			JOINT LeftFoot
			{
				OFFSET -0.013596 -0.397961 -0.043693
				CHANNELS 3 Zrotation Yrotation Xrotation
				JOINT LeftToe
				{
					OFFSET 0.026358 -0.055791 0.119288
					CHANNELS 3 Zrotation Yrotation Xrotation
					End Site
					{
						OFFSET 0.000000 0.000000 0.000000
					}
				}
			}
		}
	}
	JOINT RightUpLeg
	{
		OFFSET -0.067670 -0.090522 -0.004320
		CHANNELS 3 Zrotation Yrotation Xrotation
		JOINT RightLeg
		{
			OFFSET -0.038290 -0.382569 -0.008850
			CHANNELS 3 Zrotation Yrotation Xrotation
			JOINT RightFoot
			{
				OFFSET 0.015774 -0.398415 -0.042312
				CHANNELS 3 Zrotation Yrotation Xrotation
				JOINT RightToe
				{
					OFFSET -0.025372 -0.048144 0.123348
					CHANNELS 3 Zrotation Yrotation Xrotation
					End Site
					{
						OFFSET 0.000000 0.000000 0.000000
					}
				}
			}
		}
	}
	JOINT Spine
	{
		OFFSET -0.002533 0.108963 -0.026696
		CHANNELS 3 Zrotation Yrotation Xrotation
		JOINT Spine1
		{
			OFFSET 0.005487 0.135180 0.001092
			CHANNELS 3 Zrotation Yrotation Xrotation
			JOINT Spine2
			{
				OFFSET 0.001457 0.052922 0.025425
				CHANNELS 3 Zrotation Yrotation Xrotation
				JOINT Neck
				{
					OFFSET -0.002778 0.213870 -0.042857
					CHANNELS 3 Zrotation Yrotation Xrotation
					JOINT Head
					{
						OFFSET 0.005152 0.064970 0.051349
						CHANNELS 3 Zrotation Yrotation Xrotation
						End Site
						{
							OFFSET 0.000000 0.000000 0.000000
						}
					}
				}
				JOINT LeftShoulder
				{
					OFFSET 0.078845 0.121749 -0.034090
					CHANNELS 3 Zrotation Yrotation Xrotation
					JOINT LeftArm
					{
						OFFSET 0.090977 0.030469 -0.008868
						CHANNELS 3 Zrotation Yrotation Xrotation
						JOINT LeftForeArm
						{
							OFFSET 0.259612 -0.012772 -0.027456
							CHANNELS 3 Zrotation Yrotation Xrotation
							JOINT LeftHand
							{
								OFFSET 0.249234 0.008986 -0.001171
								CHANNELS 3 Zrotation Yrotation Xrotation
								End Site
								{
									OFFSET 0.000000 0.000000 0.000000
								}
							}
						}
					}
				}
				JOINT RightShoulder
				{
					OFFSET -0.081759 0.118833 -0.038615
					CHANNELS 3 Zrotation Yrotation Xrotation
					JOINT RightArm
					{
						OFFSET -0.096012 0.032551 -0.009143
						CHANNELS 3 Zrotation Yrotation Xrotation
						JOINT RightForeArm
						{
							OFFSET -0.253742 -0.013329 -0.021401
							CHANNELS 3 Zrotation Yrotation Xrotation
							JOINT RightHand
							{
								OFFSET -0.255298 0.007772 -0.005559
								CHANNELS 3 Zrotation Yrotation Xrotation
								End Site
								{
									OFFSET 0.000000 0.000000 0.000000
								}
							}
						}
					}
				}
			}
		}
	}
}
MOTION
Frames: 17
Frame Time: 0.050000
-0.431773 0.837044 0.200848 -10.394415 9.058433 5.172852 32.903162 4.883373 -41.166629 -6.913296 0.761680 50.063992 6.611829 17.543376 28.675203 0.000000 0.000000 0.000000 -4.919530 0.988208 -45.639925 14.087100 -9.361266 52.699546 0.184578 3.540951 -5.713776 0.000000 0.000000 0.000000 -4.756138 -1.189067 36.207022 -0.512558 0.473356 -5.924758 -5.286179 16.956712 -1.763918 24.472395 -9.668617 -21.913112 0.000000 0.000000 0.000000 -10.466533 -9.872175 -0.576879 -36.294100 -13.307902 1.440649 -12.966992 -78.869687 4.247198 0.000000 0.000000 0.000000 13.069791 -2.685000 1.028661 53.523356 20.126238 4.743755 124.704468 84.652129 136.955613 0.000000 0.000000 0.000000 
-0.304015 0.810400 0.211762 -10.050900 10.332702 2.545452 34.160791 4.308779 -37.409627 -10.056380 2.106717 45.923079 20.435682 33.220532 24.750812 0.000000 0.000000 0.000000 -7.559784 -0.276145 -42.500130 17.016894 -11.414443 50.685404 -1.055529 3.334487 -11.735146 0.000000 0.000000 0.000000 -6.388026 -0.894698 36.981970 0.616299 0.012843 -5.365468 -4.570883 16.738247 -3.172422 25.968899 -11.666644 -19.623135 0.000000 0.000000 0.000000 -15.138489 -13.367455 -0.534244 -34.464597 -11.330960 1.568841 -22.649815 -77.876380 12.506423 0.000000 0.000000 0.000000 18.507828 -0.854044 2.897566 51.328650 17.892264 2.512171 95.191456 84.492523 104.649748 0.000000 0.000000 0.000000 
-0.170640 0.788389 0.225266 -10.605662 12.505947 0.202583 32.688723 2.960350 -34.007508 -18.907263 5.964764 45.585989 28.369820 47.350191 9.003236 0.000000 0.000000 0.000000 -9.210622 -1.130149 -38.438849 12.907540 -9.789189 52.000833 -2.506194 2.502273 -19.101269 0.000000 0.000000 0.000000 -6.169184 -1.149733 34.746324 -1.087295 0.721476 -4.427265 -1.834568 14.216733 -3.057376 25.998408 -12.477416 -18.373670 0.000000 0.000000 0.000000 -16.431979 -14.960846 0.346620 -35.263779 -12.997544 2.077191 -33.767374 -75.303867 21.026205 0.000000 0.000000 0.000000 21.413027 -2.191363 1.937155 50.999543 13.952148 0.368962 47.157741 82.804436 54.579902 0.000000 0.000000 0.000000 
-0.031884 0.784878 0.235929 -12.913500 15.325042 -0.122105 29.583058 1.685511 -34.067855 -28.465716 10.017337 46.749766 28.599745 56.065229 -5.607540 0.000000 0.000000 0.000000 -9.114610 -1.425740 -36.598852 6.320617 -6.506355 53.239895 -1.969583 1.018059 -14.910421 0.000000 0.000000 0.000000 -3.845445 -1.864716 31.295245 -1.192491 0.855580 -5.682281 0.867122 12.838442 -0.559340 24.619935 -10.972750 -20.169190 0.000000 0.000000 0.000000 -12.681836 -12.962700 0.525923 -37.509462 -17.024117 2.648919 -51.092673 -76.926511 35.298482 0.000000 0.000000 0.000000 22.049895 -5.168477 0.114422 51.021609 9.987984 -1.493415 14.165835 80.360135 23.713375 0.000000 0.000000 0.000000 
0.112334 0.805616 0.241654 -15.867889 15.626594 0.148942 25.312158 0.642011 -30.500883 -34.071384 11.020033 41.229705 29.936200 59.263781 -7.025150 0.000000 0.000000 0.000000 -7.552437 -0.604242 -33.266535 2.156567 -3.642627 50.572498 0.597648 1.702215 -0.518826 0.000000 0.000000 0.000000 -2.052692 -1.959930 27.380368 0.489520 0.180757 -5.836185 3.560186 14.463727 -0.113971 21.322982 -10.616155 -15.315521 0.000000 0.000000 0.000000 -8.404905 -10.016968 0.279566 -38.519795 -17.692192 2.438010 -90.609838 -79.129184 71.224555 0.000000 0.000000 0.000000 16.438054 -8.717417 -2.253640 50.452149 3.400115 -3.382381 20.691658 82.447319 31.527863 0.000000 0.000000 0.000000 
0.260071 0.844893 0.242577 -18.121651 16.532577 1.670310 21.744855 -0.150912 -28.010549 -37.253264 9.967223 33.739742 32.339512 49.545103 15.596878 0.000000 0.000000 0.000000 -5.259098 0.081301 -32.580778 2.818302 -3.607116 45.156690 0.946318 -1.358569 11.343642 0.000000 0.000000 0.000000 2.305665 -2.543053 23.204645 1.665616 -0.182263 -7.309916 2.683527 11.751840 2.662631 21.992077 -10.063731 -18.248287 0.000000 0.000000 0.000000 -1.988370 -2.294148 -0.182401 -38.970280 -20.167387 1.985214 -134.118858 -78.837509 116.944570 0.000000 0.000000 0.000000 8.896810 -8.788942 -2.964630 50.149288 1.786282 -3.342501 34.541177 83.972786 45.309093 0.000000 0.000000 0.000000 
0.405674 0.886235 0.239153 -16.983608 17.872167 1.881088 18.424200 -0.742096 -28.364860 -40.696313 10.407773 33.198478 10.739880 22.152531 43.719436 0.000000 0.000000 0.000000 -3.897072 0.340763 -32.459396 3.483476 -4.483655 46.082207 2.852934 0.564078 16.673770 0.000000 0.000000 0.000000 3.884450 -2.952170 22.980513 -0.392607 0.626972 -7.016543 2.919648 11.125589 1.145610 21.367501 -10.604529 -15.660932 0.000000 0.000000 0.000000 -2.502914 0.897763 -1.319523 -32.126614 -21.344611 1.954711 -166.813544 -79.554199 156.666196 0.000000 0.000000 0.000000 6.280192 -9.927837 -3.695285 46.412156 1.090555 -3.139115 59.619260 85.410156 70.187316 0.000000 0.000000 0.000000 
0.547088 0.919701 0.233065 -15.772347 17.239081 1.697655 22.773342 -0.078797 -29.398020 -46.147927 13.199411 34.639556 -2.338171 10.944818 47.657379 0.000000 0.000000 0.000000 -3.101864 0.638960 -33.039408 6.751094 -6.462757 46.973309 5.097255 3.798406 17.750019 0.000000 0.000000 0.000000 3.674005 -3.072729 24.238153 -1.093823 0.929794 -7.964922 1.100887 12.981709 0.561458 18.565022 -7.431212 -18.315687 0.000000 0.000000 0.000000 -2.192207 2.605881 -1.800775 -29.306694 -21.985540 1.894864 -178.981297 -81.528480 170.648650 0.000000 0.000000 0.000000 5.913803 -9.501339 -3.431497 45.060139 -0.682289 -3.557687 163.132569 86.569829 179.020959 0.000000 0.000000 0.000000 
0.685905 0.938409 0.229262 -13.478243 16.506160 2.025182 28.910783 0.677150 -27.929152 -41.125783 12.713274 37.143765 -6.958558 5.424342 41.505463 0.000000 0.000000 0.000000 -2.315043 0.928216 -33.777522 9.635614 -8.063587 47.038799 6.187954 5.136018 18.535146 0.000000 0.000000 0.000000 0.969616 -2.372342 24.567758 -0.896080 0.938324 -10.223036 -0.781475 13.292426 2.929435 21.957703 -8.785762 -20.858002 0.000000 0.000000 0.000000 -2.130689 3.735594 -2.184712 -27.077322 -18.906998 1.197076 159.031893 -82.077795 -164.609727 0.000000 0.000000 0.000000 9.057296 -10.326534 -3.516708 46.782342 1.945110 -3.291962 -154.996261 83.860362 -133.596785 0.000000 0.000000 0.000000 
0.828349 0.933151 0.225029 -10.181838 15.798947 2.026315 34.120743 0.531403 -21.945707 -27.856844 7.515057 34.265471 14.242955 26.540321 25.702615 0.000000 0.000000 0.000000 -3.400787 0.734649 -32.174904 11.430116 -8.152824 43.291036 5.360708 5.411696 14.543579 0.000000 0.000000 0.000000 -1.453194 -1.779795 25.045838 -3.977791 2.017647 -11.669202 0.470867 13.663543 3.484944 19.988418 -8.017032 -19.721779 0.000000 0.000000 0.000000 -5.145853 2.760105 -3.077944 -28.147029 -16.291599 1.010557 160.156616 -83.658456 -165.968247 0.000000 0.000000 0.000000 9.829228 -12.694597 -4.669831 49.223547 -0.559486 -4.335251 -173.125898 80.542835 -151.867817 0.000000 0.000000 0.000000 
0.980678 0.905498 0.215153 -8.266241 15.093369 2.128903 36.717252 -0.297850 -15.959723 -18.751405 3.716911 25.019343 27.166616 37.436493 33.124183 0.000000 0.000000 0.000000 -5.261882 0.282887 -31.207462 12.282084 -7.791965 40.195651 0.439724 -0.224266 3.712925 0.000000 0.000000 0.000000 -2.838320 -1.211276 23.253408 -1.679072 1.259002 -12.742197 -1.599904 11.161742 6.590644 23.026521 -8.337565 -25.269860 0.000000 0.000000 0.000000 -9.323961 6.111073 -5.790729 -27.554659 -9.395047 -0.305074 -172.396549 -84.397418 165.489394 0.000000 0.000000 0.000000 11.644748 -10.419371 -3.466154 53.291878 3.052747 -3.649191 -155.497323 81.431301 -132.379944 0.000000 0.000000 0.000000 
1.141271 0.871833 0.193259 -5.695722 14.085800 1.340014 34.472014 -0.313452 -14.361368 -17.572270 3.389171 24.289610 26.471323 36.291910 35.224663 0.000000 0.000000 0.000000 -7.421430 -0.336227 -32.378175 9.252798 -6.870859 46.214330 -1.675253 -2.382141 -5.385574 0.000000 0.000000 0.000000 -2.498337 -1.393072 25.161464 -5.733835 2.584510 -12.894541 2.907008 12.961497 5.823444 17.438102 -4.946697 -25.549334 0.000000 0.000000 0.000000 -12.628396 -3.331148 -3.285151 -28.528732 -4.818592 -0.910642 142.069002 -86.904225 -145.505618 0.000000 0.000000 0.000000 16.243718 -15.993263 -6.522426 48.553878 2.511851 -4.272360 -170.487156 77.742558 -148.417819 0.000000 0.000000 0.000000 
1.303522 0.858355 0.164122 -5.611945 12.608698 2.222119 31.471035 0.099845 -15.537001 -22.510514 5.419270 28.825417 19.157284 31.757339 23.980226 0.000000 0.000000 0.000000 -5.613331 0.320572 -35.077124 5.157669 -4.437674 50.228481 -3.345559 -6.325914 -7.774552 0.000000 0.000000 0.000000 0.296229 -1.917582 24.868668 -0.668741 0.883505 -13.017188 -3.594236 12.161060 8.046886 21.989563 -7.110461 -27.488373 0.000000 0.000000 0.000000 -11.499729 4.634821 -6.069651 -32.807640 -5.993271 -1.319579 -131.087223 -87.056083 123.199269 0.000000 0.000000 0.000000 16.442237 -13.750284 -5.131526 50.863519 6.167933 -3.200888 -123.821925 77.577634 -93.425777 0.000000 0.000000 0.000000 
1.461613 0.872200 0.137947 -3.430325 8.269170 1.667251 28.316961 0.606655 -14.681271 -30.553503 9.139804 30.483656 0.987136 10.776156 28.211669 0.000000 0.000000 0.000000 -3.474400 1.580551 -35.641558 3.989358 -2.586311 52.073740 -2.272146 -4.090421 -4.629847 0.000000 0.000000 0.000000 1.558324 -2.146494 26.925367 -3.316472 1.670153 -13.685196 -1.766487 13.481729 7.751965 20.800962 -8.057794 -23.009223 0.000000 0.000000 0.000000 -11.716505 1.726966 -4.662900 -31.770174 -3.013694 -2.043308 -54.621459 -87.763882 48.435660 0.000000 0.000000 0.000000 16.563117 -13.997076 -5.550197 46.070060 9.593538 -2.107338 -136.438878 76.934426 -107.915567 0.000000 0.000000 0.000000 
1.613142 0.897035 0.120117 -0.859847 5.946986 2.363381 25.236642 0.992058 -16.951296 -33.061720 11.629473 34.250587 -14.215752 -6.125706 33.151447 0.000000 0.000000 0.000000 -1.645124 2.351335 -33.759629 4.557156 -2.286856 52.351682 -1.628160 -3.228412 -2.241071 0.000000 0.000000 0.000000 2.482360 -2.221632 27.170259 -4.273448 1.948041 -11.885571 -2.050228 14.393988 6.022451 20.353289 -8.776463 -19.952694 0.000000 0.000000 0.000000 -10.204341 3.878891 -4.915862 -32.255776 -2.037731 -2.409040 -53.464082 -85.499362 45.668734 0.000000 0.000000 0.000000 10.985916 -13.023684 -5.147479 43.797830 7.850279 -1.972638 -150.597804 74.167606 -122.770687 0.000000 0.000000 0.000000 
1.758793 0.918419 0.109606 1.573475 3.352938 2.244075 25.354292 1.343304 -16.714117 -31.094969 12.014086 35.975769 -7.719518 0.380540 30.425602 0.000000 0.000000 0.000000 -3.354377 2.100735 -32.769911 8.286806 -3.852165 51.996788 -2.085192 -5.704316 1.268278 0.000000 0.000000 0.000000 2.488837 -2.006940 27.204543 -3.446122 1.610478 -11.375577 -4.042853 15.948973 5.280070 18.340466 -8.773684 -15.962618 0.000000 0.000000 0.000000 -10.199154 5.375977 -5.564206 -32.572308 -0.152152 -2.880681 -65.763824 -82.132967 54.293338 0.000000 0.000000 0.000000 7.471617 -12.791688 -5.005281 41.745912 5.859463 -2.347125 -167.894449 71.546968 -142.776229 0.000000 0.000000 0.000000 
1.897151 0.924254 0.101742 3.643890 1.738932 3.505167 28.447614 1.542679 -14.615476 -24.958489 8.517880 30.211898 6.743492 16.879139 29.167353 0.000000 0.000000 0.000000 -5.221009 1.871264 -34.950421 10.702382 -5.120729 54.522140 -2.392944 -7.484885 4.408611 0.000000 0.000000 0.000000 2.272674 -1.635067 24.508524 -3.297394 1.528210 -8.425002 -6.089494 14.622076 2.867699 18.840765 -9.340287 -15.389365 0.000000 0.000000 0.000000 -7.679913 6.893109 -4.972891 -35.802143 3.476632 -4.515915 -75.048083 -79.686756 61.301803 0.000000 0.000000 0.000000 6.203278 -11.769726 -4.619631 41.683839 5.458190 -2.123800 172.469227 69.738653 -171.757861 0.000000 0.000000 0.000000 
